<svg xmlns="http://www.w3.org/2000/svg" width="16" height="16" viewBox="0 0 16 16" fill="none">
<path d="M8.65399 12.6508C8.74139 12.7379 8.81074 12.8413 8.85806 12.9553C8.90537 13.0693 8.92973 13.1914 8.92973 13.3148C8.92973 13.4382 8.90537 13.5604 8.85806 13.6743C8.81074 13.7883 8.74139 13.8918 8.65399 13.9789L8.18993 14.4429C7.31057 15.3223 6.11791 15.8163 4.8743 15.8163C3.6307 15.8163 2.43804 15.3223 1.55868 14.4429C0.679321 13.5636 0.185303 12.3709 0.185303 11.1273C0.185303 9.88372 0.679321 8.69105 1.55868 7.81169L3.44305 5.9281C4.28796 5.0811 5.42476 4.58921 6.62057 4.55319C7.81639 4.51717 8.98073 4.93974 9.87509 5.73435C9.96742 5.81642 10.0427 5.91588 10.0966 6.02705C10.1505 6.13821 10.182 6.2589 10.1892 6.38223C10.1965 6.50556 10.1794 6.62911 10.1389 6.74582C10.0984 6.86254 10.0353 6.97014 9.95321 7.06247C9.87113 7.15481 9.77168 7.23007 9.66051 7.28397C9.54935 7.33787 9.42866 7.36934 9.30533 7.3766C9.182 7.38385 9.05845 7.36675 8.94174 7.32625C8.82502 7.28576 8.71742 7.22267 8.62509 7.1406C8.08877 6.66429 7.39074 6.4109 6.67377 6.43224C5.9568 6.45359 5.27508 6.74807 4.76805 7.25544L2.88524 9.13669C2.35771 9.66422 2.06135 10.3797 2.06135 11.1258C2.06135 11.8718 2.35771 12.5873 2.88524 13.1148C3.41277 13.6423 4.12826 13.9387 4.8743 13.9387C5.62035 13.9387 6.33583 13.6423 6.86337 13.1148L7.32743 12.6508C7.4145 12.5636 7.51789 12.4944 7.6317 12.4473C7.74551 12.4001 7.86751 12.3758 7.99071 12.3758C8.11391 12.3758 8.23591 12.4001 8.34972 12.4473C8.46353 12.4944 8.56692 12.5636 8.65399 12.6508ZM14.4415 1.557C13.5614 0.678998 12.369 0.185913 11.1259 0.185913C9.88271 0.185913 8.69032 0.678998 7.81024 1.557L7.34618 2.02107C7.17006 2.19719 7.07112 2.43606 7.07112 2.68513C7.07112 2.9342 7.17006 3.17307 7.34618 3.34919C7.5223 3.52531 7.76117 3.62426 8.01024 3.62426C8.25931 3.62426 8.49818 3.52531 8.6743 3.34919L9.13837 2.88513C9.6659 2.3576 10.3814 2.06123 11.1274 2.06123C11.8735 2.06123 12.589 2.3576 13.1165 2.88513C13.644 3.41266 13.9404 4.12815 13.9404 4.87419C13.9404 5.62023 13.644 6.33572 13.1165 6.86325L11.2329 8.74763C10.7254 9.25479 10.0433 9.54884 9.32618 9.56961C8.60903 9.59038 7.91105 9.33629 7.37509 8.85935C7.28275 8.77727 7.17515 8.71419 7.05844 8.67369C6.94172 8.6332 6.81817 8.61609 6.69484 8.62335C6.57152 8.6306 6.45082 8.66208 6.33966 8.71597C6.2285 8.76987 6.12904 8.84514 6.04696 8.93747C5.96488 9.02981 5.9018 9.13741 5.86131 9.25412C5.82081 9.37084 5.80371 9.49439 5.81096 9.61772C5.81821 9.74104 5.84969 9.86173 5.90359 9.9729C5.95748 10.0841 6.03275 10.1835 6.12509 10.2656C7.01882 11.06 8.18238 11.4829 9.37763 11.4476C10.5729 11.4123 11.7095 10.9215 12.5548 10.0758L14.4391 8.19216C15.3182 7.3123 15.8121 6.11957 15.8126 4.87585C15.813 3.63212 15.3199 2.43905 14.4415 1.55857V1.557Z" fill="#737373"/>
</svg>
